<?xml version="1.0" encoding="UTF-8" standalone="no"?>
<!DOCTYPE svg PUBLIC "-//W3C//DTD SVG 1.1//EN"
 "http://www.w3.org/Graphics/SVG/1.1/DTD/svg11.dtd">
<!-- Generated by graphviz version 2.43.0 (0)
 -->
<!-- Title: %3 Pages: 1 -->
<svg width="2036pt" height="548pt"
 viewBox="0.00 0.00 2036.22 548.00" xmlns="http://www.w3.org/2000/svg" xmlns:xlink="http://www.w3.org/1999/xlink">
<g id="graph0" class="graph" transform="scale(1 1) rotate(0) translate(4 544)">
<title>%3</title>
<polygon fill="white" stroke="transparent" points="-4,4 -4,-544 2032.22,-544 2032.22,4 -4,4"/>
<!-- [root] azurerm_linux_virtual_machine.dev01vm (expand) -->
<g id="node1" class="node">
<title>[root] azurerm_linux_virtual_machine.dev01vm (expand)</title>
<polygon fill="none" stroke="black" points="1088.18,-396 779.18,-396 779.18,-360 1088.18,-360 1088.18,-396"/>
<text text-anchor="middle" x="933.68" y="-374.3" font-family="Times,serif" font-size="14.00">azurerm_linux_virtual_machine.dev01vm</text>
</g>
<!-- [root] azurerm_network_interface.dev01vm_nic (expand) -->
<g id="node2" class="node">
<title>[root] azurerm_network_interface.dev01vm_nic (expand)</title>
<polygon fill="none" stroke="black" points="1085.68,-324 775.68,-324 775.68,-288 1085.68,-288 1085.68,-324"/>
<text text-anchor="middle" x="930.68" y="-302.3" font-family="Times,serif" font-size="14.00">azurerm_network_interface.dev01vm_nic</text>
</g>
<!-- [root] azurerm_linux_virtual_machine.dev01vm (expand)&#45;&gt;[root] azurerm_network_interface.dev01vm_nic (expand) -->
<g id="edge1" class="edge">
<title>[root] azurerm_linux_virtual_machine.dev01vm (expand)&#45;&gt;[root] azurerm_network_interface.dev01vm_nic (expand)</title>
<path fill="none" stroke="black" d="M932.94,-359.7C932.61,-351.98 932.21,-342.71 931.84,-334.11"/>
<polygon fill="black" stroke="black" points="935.34,-333.95 931.41,-324.1 928.35,-334.25 935.34,-333.95"/>
</g>
<!-- [root] azurerm_public_ip.dev01vm_pub_ip (expand) -->
<g id="node5" class="node">
<title>[root] azurerm_public_ip.dev01vm_pub_ip (expand)</title>
<polygon fill="none" stroke="black" points="960.18,-252 689.18,-252 689.18,-216 960.18,-216 960.18,-252"/>
<text text-anchor="middle" x="824.68" y="-230.3" font-family="Times,serif" font-size="14.00">azurerm_public_ip.dev01vm_pub_ip</text>
</g>
<!-- [root] azurerm_network_interface.dev01vm_nic (expand)&#45;&gt;[root] azurerm_public_ip.dev01vm_pub_ip (expand) -->
<g id="edge2" class="edge">
<title>[root] azurerm_network_interface.dev01vm_nic (expand)&#45;&gt;[root] azurerm_public_ip.dev01vm_pub_ip (expand)</title>
<path fill="none" stroke="black" d="M904.75,-287.88C891.02,-278.81 873.98,-267.55 859.15,-257.76"/>
<polygon fill="black" stroke="black" points="860.99,-254.78 850.71,-252.19 857.13,-260.62 860.99,-254.78"/>
</g>
<!-- [root] azurerm_virtual_network.example_az_vnet (expand) -->
<g id="node7" class="node">
<title>[root] azurerm_virtual_network.example_az_vnet (expand)</title>
<polygon fill="none" stroke="black" points="1338.18,-252 1017.18,-252 1017.18,-216 1338.18,-216 1338.18,-252"/>
<text text-anchor="middle" x="1177.68" y="-230.3" font-family="Times,serif" font-size="14.00">azurerm_virtual_network.example_az_vnet</text>
</g>
<!-- [root] azurerm_network_interface.dev01vm_nic (expand)&#45;&gt;[root] azurerm_virtual_network.example_az_vnet (expand) -->
<g id="edge3" class="edge">
<title>[root] azurerm_network_interface.dev01vm_nic (expand)&#45;&gt;[root] azurerm_virtual_network.example_az_vnet (expand)</title>
<path fill="none" stroke="black" d="M990.79,-287.97C1026.05,-277.97 1070.77,-265.3 1107.63,-254.85"/>
<polygon fill="black" stroke="black" points="1108.64,-258.2 1117.3,-252.11 1106.73,-251.47 1108.64,-258.2"/>
</g>
<!-- [root] azurerm_network_interface_security_group_association.nsg_association (expand) -->
<g id="node3" class="node">
<title>[root] azurerm_network_interface_security_group_association.nsg_association (expand)</title>
<polygon fill="none" stroke="black" points="760.68,-396 232.68,-396 232.68,-360 760.68,-360 760.68,-396"/>
<text text-anchor="middle" x="496.68" y="-374.3" font-family="Times,serif" font-size="14.00">azurerm_network_interface_security_group_association.nsg_association</text>
</g>
<!-- [root] azurerm_network_interface_security_group_association.nsg_association (expand)&#45;&gt;[root] azurerm_network_interface.dev01vm_nic (expand) -->
<g id="edge4" class="edge">
<title>[root] azurerm_network_interface_security_group_association.nsg_association (expand)&#45;&gt;[root] azurerm_network_interface.dev01vm_nic (expand)</title>
<path fill="none" stroke="black" d="M602.3,-359.97C666.61,-349.59 748.84,-336.33 814.93,-325.67"/>
<polygon fill="black" stroke="black" points="815.66,-329.1 824.97,-324.05 814.54,-322.19 815.66,-329.1"/>
</g>
<!-- [root] azurerm_network_security_group.nsg_ssh (expand) -->
<g id="node4" class="node">
<title>[root] azurerm_network_security_group.nsg_ssh (expand)</title>
<polygon fill="none" stroke="black" points="754.68,-324 438.68,-324 438.68,-288 754.68,-288 754.68,-324"/>
<text text-anchor="middle" x="596.68" y="-302.3" font-family="Times,serif" font-size="14.00">azurerm_network_security_group.nsg_ssh</text>
</g>
<!-- [root] azurerm_network_interface_security_group_association.nsg_association (expand)&#45;&gt;[root] azurerm_network_security_group.nsg_ssh (expand) -->
<g id="edge5" class="edge">
<title>[root] azurerm_network_interface_security_group_association.nsg_association (expand)&#45;&gt;[root] azurerm_network_security_group.nsg_ssh (expand)</title>
<path fill="none" stroke="black" d="M521.14,-359.88C533.98,-350.89 549.88,-339.76 563.78,-330.03"/>
<polygon fill="black" stroke="black" points="565.94,-332.79 572.12,-324.19 561.93,-327.06 565.94,-332.79"/>
</g>
<!-- [root] azurerm_resource_group.example_az_rg (expand) -->
<g id="node6" class="node">
<title>[root] azurerm_resource_group.example_az_rg (expand)</title>
<polygon fill="none" stroke="black" points="1329.68,-180 1025.68,-180 1025.68,-144 1329.68,-144 1329.68,-180"/>
<text text-anchor="middle" x="1177.68" y="-158.3" font-family="Times,serif" font-size="14.00">azurerm_resource_group.example_az_rg</text>
</g>
<!-- [root] azurerm_network_security_group.nsg_ssh (expand)&#45;&gt;[root] azurerm_resource_group.example_az_rg (expand) -->
<g id="edge6" class="edge">
<title>[root] azurerm_network_security_group.nsg_ssh (expand)&#45;&gt;[root] azurerm_resource_group.example_az_rg (expand)</title>
<path fill="none" stroke="black" d="M746.19,-287.97C840.49,-276.49 948.22,-261.72 968.68,-252 989.99,-241.88 987.26,-227.8 1007.68,-216 1032.24,-201.81 1061.03,-190.99 1087.86,-182.94"/>
<polygon fill="black" stroke="black" points="1089.02,-186.25 1097.64,-180.1 1087.06,-179.53 1089.02,-186.25"/>
</g>
<!-- [root] azurerm_public_ip.dev01vm_pub_ip (expand)&#45;&gt;[root] azurerm_resource_group.example_az_rg (expand) -->
<g id="edge7" class="edge">
<title>[root] azurerm_public_ip.dev01vm_pub_ip (expand)&#45;&gt;[root] azurerm_resource_group.example_az_rg (expand)</title>
<path fill="none" stroke="black" d="M910.58,-215.97C962.36,-205.7 1028.41,-192.6 1081.87,-182"/>
<polygon fill="black" stroke="black" points="1082.57,-185.43 1091.7,-180.05 1081.21,-178.56 1082.57,-185.43"/>
</g>
<!-- [root] provider[&quot;registry.terraform.io/hashicorp/azurerm&quot;] -->
<g id="node8" class="node">
<title>[root] provider[&quot;registry.terraform.io/hashicorp/azurerm&quot;]</title>
<polygon fill="none" stroke="black" points="1177.68,-108 823.09,-90 1177.68,-72 1532.27,-90 1177.68,-108"/>
<text text-anchor="middle" x="1177.68" y="-86.3" font-family="Times,serif" font-size="14.00">provider[&quot;registry.terraform.io/hashicorp/azurerm&quot;]</text>
</g>
<!-- [root] azurerm_resource_group.example_az_rg (expand)&#45;&gt;[root] provider[&quot;registry.terraform.io/hashicorp/azurerm&quot;] -->
<g id="edge8" class="edge">
<title>[root] azurerm_resource_group.example_az_rg (expand)&#45;&gt;[root] provider[&quot;registry.terraform.io/hashicorp/azurerm&quot;]</title>
<path fill="none" stroke="black" d="M1177.68,-143.7C1177.68,-135.98 1177.68,-126.71 1177.68,-118.11"/>
<polygon fill="black" stroke="black" points="1181.18,-118.1 1177.68,-108.1 1174.18,-118.1 1181.18,-118.1"/>
</g>
<!-- [root] azurerm_virtual_network.example_az_vnet (expand)&#45;&gt;[root] azurerm_resource_group.example_az_rg (expand) -->
<g id="edge9" class="edge">
<title>[root] azurerm_virtual_network.example_az_vnet (expand)&#45;&gt;[root] azurerm_resource_group.example_az_rg (expand)</title>
<path fill="none" stroke="black" d="M1177.68,-215.7C1177.68,-207.98 1177.68,-198.71 1177.68,-190.11"/>
<polygon fill="black" stroke="black" points="1181.18,-190.1 1177.68,-180.1 1174.18,-190.1 1181.18,-190.1"/>
</g>
<!-- [root] var.subscription_id -->
<g id="node9" class="node">
<title>[root] var.subscription_id</title>
<polygon fill="none" stroke="black" points="1247.68,-36 1101.68,-36 1101.68,0 1253.68,0 1253.68,-30 1247.68,-36"/>
<polyline fill="none" stroke="black" points="1247.68,-36 1247.68,-30 "/>
<polyline fill="none" stroke="black" points="1253.68,-30 1247.68,-30 "/>
<text text-anchor="middle" x="1177.68" y="-14.3" font-family="Times,serif" font-size="14.00">var.subscription_id</text>
</g>
<!-- [root] provider[&quot;registry.terraform.io/hashicorp/azurerm&quot;]&#45;&gt;[root] var.subscription_id -->
<g id="edge17" class="edge">
<title>[root] provider[&quot;registry.terraform.io/hashicorp/azurerm&quot;]&#45;&gt;[root] var.subscription_id</title>
<path fill="none" stroke="black" d="M1177.68,-71.7C1177.68,-63.98 1177.68,-54.71 1177.68,-46.11"/>
<polygon fill="black" stroke="black" points="1181.18,-46.1 1177.68,-36.1 1174.18,-46.1 1181.18,-46.1"/>
</g>
<!-- [root] output.azure_rm_name (expand) -->
<g id="node10" class="node">
<title>[root] output.azure_rm_name (expand)</title>
<ellipse fill="none" stroke="black" cx="1712.68" cy="-378" rx="189.57" ry="18"/>
<text text-anchor="middle" x="1712.68" y="-374.3" font-family="Times,serif" font-size="14.00">[root] output.azure_rm_name (expand)</text>
</g>
<!-- [root] output.azure_rm_name (expand)&#45;&gt;[root] azurerm_resource_group.example_az_rg (expand) -->
<g id="edge10" class="edge">
<title>[root] output.azure_rm_name (expand)&#45;&gt;[root] azurerm_resource_group.example_az_rg (expand)</title>
<path fill="none" stroke="black" d="M1678.14,-360.27C1613.82,-329.46 1470.97,-262.66 1346.68,-216 1314.47,-203.91 1278.13,-192.26 1247.43,-182.98"/>
<polygon fill="black" stroke="black" points="1248.25,-179.57 1237.67,-180.05 1246.24,-186.28 1248.25,-179.57"/>
</g>
<!-- [root] output.azure_vm_public_ip (expand) -->
<g id="node11" class="node">
<title>[root] output.azure_vm_public_ip (expand)</title>
<ellipse fill="none" stroke="black" cx="206.68" cy="-306" rx="206.86" ry="18"/>
<text text-anchor="middle" x="206.68" y="-302.3" font-family="Times,serif" font-size="14.00">[root] output.azure_vm_public_ip (expand)</text>
</g>
<!-- [root] output.azure_vm_public_ip (expand)&#45;&gt;[root] azurerm_public_ip.dev01vm_pub_ip (expand) -->
<g id="edge11" class="edge">
<title>[root] output.azure_vm_public_ip (expand)&#45;&gt;[root] azurerm_public_ip.dev01vm_pub_ip (expand)</title>
<path fill="none" stroke="black" d="M327.31,-291.34C427.95,-279.94 571.7,-263.65 678.8,-251.52"/>
<polygon fill="black" stroke="black" points="679.51,-254.97 689.05,-250.36 678.72,-248.01 679.51,-254.97"/>
</g>
<!-- [root] output.azure_vnet_id (expand) -->
<g id="node12" class="node">
<title>[root] output.azure_vnet_id (expand)</title>
<ellipse fill="none" stroke="black" cx="1324.68" cy="-378" rx="180.87" ry="18"/>
<text text-anchor="middle" x="1324.68" y="-374.3" font-family="Times,serif" font-size="14.00">[root] output.azure_vnet_id (expand)</text>
</g>
<!-- [root] output.azure_vnet_id (expand)&#45;&gt;[root] azurerm_virtual_network.example_az_vnet (expand) -->
<g id="edge12" class="edge">
<title>[root] output.azure_vnet_id (expand)&#45;&gt;[root] azurerm_virtual_network.example_az_vnet (expand)</title>
<path fill="none" stroke="black" d="M1306.95,-359.87C1281.01,-334.82 1232.6,-288.05 1202.95,-259.41"/>
<polygon fill="black" stroke="black" points="1205.1,-256.62 1195.48,-252.19 1200.24,-261.65 1205.1,-256.62"/>
</g>
<!-- [root] output.azure_vnet_name (expand) -->
<g id="node13" class="node">
<title>[root] output.azure_vnet_name (expand)</title>
<ellipse fill="none" stroke="black" cx="1115.68" cy="-450" rx="196.87" ry="18"/>
<text text-anchor="middle" x="1115.68" y="-446.3" font-family="Times,serif" font-size="14.00">[root] output.azure_vnet_name (expand)</text>
</g>
<!-- [root] output.azure_vnet_name (expand)&#45;&gt;[root] azurerm_virtual_network.example_az_vnet (expand) -->
<g id="edge13" class="edge">
<title>[root] output.azure_vnet_name (expand)&#45;&gt;[root] azurerm_virtual_network.example_az_vnet (expand)</title>
<path fill="none" stroke="black" d="M1118.72,-431.79C1122.04,-413.75 1127.83,-384.66 1134.68,-360 1144.23,-325.6 1158.05,-286.85 1167.43,-261.74"/>
<polygon fill="black" stroke="black" points="1170.78,-262.77 1171.03,-252.18 1164.23,-260.31 1170.78,-262.77"/>
</g>
<!-- [root] output.azurewm_rg_id (expand) -->
<g id="node14" class="node">
<title>[root] output.azurewm_rg_id (expand)</title>
<ellipse fill="none" stroke="black" cx="1841.68" cy="-234" rx="186.57" ry="18"/>
<text text-anchor="middle" x="1841.68" y="-230.3" font-family="Times,serif" font-size="14.00">[root] output.azurewm_rg_id (expand)</text>
</g>
<!-- [root] output.azurewm_rg_id (expand)&#45;&gt;[root] azurerm_resource_group.example_az_rg (expand) -->
<g id="edge14" class="edge">
<title>[root] output.azurewm_rg_id (expand)&#45;&gt;[root] azurerm_resource_group.example_az_rg (expand)</title>
<path fill="none" stroke="black" d="M1720.67,-220.24C1613.99,-209 1457.69,-192.52 1340.14,-180.13"/>
<polygon fill="black" stroke="black" points="1340.27,-176.62 1329.96,-179.05 1339.54,-183.58 1340.27,-176.62"/>
</g>
<!-- [root] provider[&quot;registry.terraform.io/hashicorp/azurerm&quot;] (close) -->
<g id="node15" class="node">
<title>[root] provider[&quot;registry.terraform.io/hashicorp/azurerm&quot;] (close)</title>
<ellipse fill="none" stroke="black" cx="587.68" cy="-450" rx="313.04" ry="18"/>
<text text-anchor="middle" x="587.68" y="-446.3" font-family="Times,serif" font-size="14.00">[root] provider[&quot;registry.terraform.io/hashicorp/azurerm&quot;] (close)</text>
</g>
<!-- [root] provider[&quot;registry.terraform.io/hashicorp/azurerm&quot;] (close)&#45;&gt;[root] azurerm_linux_virtual_machine.dev01vm (expand) -->
<g id="edge15" class="edge">
<title>[root] provider[&quot;registry.terraform.io/hashicorp/azurerm&quot;] (close)&#45;&gt;[root] azurerm_linux_virtual_machine.dev01vm (expand)</title>
<path fill="none" stroke="black" d="M668.8,-432.59C719.95,-422.24 786.19,-408.84 839.63,-398.03"/>
<polygon fill="black" stroke="black" points="840.35,-401.45 849.46,-396.04 838.96,-394.59 840.35,-401.45"/>
</g>
<!-- [root] provider[&quot;registry.terraform.io/hashicorp/azurerm&quot;] (close)&#45;&gt;[root] azurerm_network_interface_security_group_association.nsg_association (expand) -->
<g id="edge16" class="edge">
<title>[root] provider[&quot;registry.terraform.io/hashicorp/azurerm&quot;] (close)&#45;&gt;[root] azurerm_network_interface_security_group_association.nsg_association (expand)</title>
<path fill="none" stroke="black" d="M565.19,-431.7C553.73,-422.88 539.62,-412.03 527.2,-402.47"/>
<polygon fill="black" stroke="black" points="528.98,-399.43 518.92,-396.1 524.71,-404.98 528.98,-399.43"/>
</g>
<!-- [root] root -->
<g id="node16" class="node">
<title>[root] root</title>
<ellipse fill="none" stroke="black" cx="1227.68" cy="-522" rx="58.49" ry="18"/>
<text text-anchor="middle" x="1227.68" y="-518.3" font-family="Times,serif" font-size="14.00">[root] root</text>
</g>
<!-- [root] root&#45;&gt;[root] output.azure_rm_name (expand) -->
<g id="edge18" class="edge">
<title>[root] root&#45;&gt;[root] output.azure_rm_name (expand)</title>
<path fill="none" stroke="black" d="M1268.61,-509.02C1352.71,-484.39 1545.54,-427.94 1647.2,-398.17"/>
<polygon fill="black" stroke="black" points="1648.43,-401.46 1657.05,-395.29 1646.47,-394.74 1648.43,-401.46"/>
</g>
<!-- [root] root&#45;&gt;[root] output.azure_vm_public_ip (expand) -->
<g id="edge19" class="edge">
<title>[root] root&#45;&gt;[root] output.azure_vm_public_ip (expand)</title>
<path fill="none" stroke="black" d="M1169.18,-520.97C972.43,-520.44 342.6,-515.04 265.68,-468 220.26,-440.22 209.51,-372.68 207.15,-334.49"/>
<polygon fill="black" stroke="black" points="210.63,-333.93 206.67,-324.1 203.64,-334.25 210.63,-333.93"/>
</g>
<!-- [root] root&#45;&gt;[root] output.azure_vnet_id (expand) -->
<g id="edge20" class="edge">
<title>[root] root&#45;&gt;[root] output.azure_vnet_id (expand)</title>
<path fill="none" stroke="black" d="M1268.24,-508.7C1287.92,-500.49 1309.82,-487.54 1321.68,-468 1332.87,-449.57 1332.76,-424.82 1330.34,-406.1"/>
<polygon fill="black" stroke="black" points="1333.78,-405.46 1328.77,-396.13 1326.87,-406.55 1333.78,-405.46"/>
</g>
<!-- [root] root&#45;&gt;[root] output.azure_vnet_name (expand) -->
<g id="edge21" class="edge">
<title>[root] root&#45;&gt;[root] output.azure_vnet_name (expand)</title>
<path fill="none" stroke="black" d="M1203.1,-505.64C1187.97,-496.18 1168.31,-483.89 1151.46,-473.36"/>
<polygon fill="black" stroke="black" points="1153.29,-470.38 1142.95,-468.04 1149.58,-476.31 1153.29,-470.38"/>
</g>
<!-- [root] root&#45;&gt;[root] output.azurewm_rg_id (expand) -->
<g id="edge22" class="edge">
<title>[root] root&#45;&gt;[root] output.azurewm_rg_id (expand)</title>
<path fill="none" stroke="black" d="M1285.83,-519.51C1436.24,-514.33 1831.91,-491.67 1911.68,-396 1946.2,-354.61 1899.63,-293.58 1867.53,-259.8"/>
<polygon fill="black" stroke="black" points="1869.63,-256.93 1860.14,-252.22 1864.62,-261.82 1869.63,-256.93"/>
</g>
<!-- [root] root&#45;&gt;[root] provider[&quot;registry.terraform.io/hashicorp/azurerm&quot;] (close) -->
<g id="edge23" class="edge">
<title>[root] root&#45;&gt;[root] provider[&quot;registry.terraform.io/hashicorp/azurerm&quot;] (close)</title>
<path fill="none" stroke="black" d="M1173.39,-515.06C1077.75,-504.6 876.12,-482.55 736.35,-467.26"/>
<polygon fill="black" stroke="black" points="736.72,-463.78 726.39,-466.17 735.95,-470.74 736.72,-463.78"/>
</g>
</g>
</svg>
