<?xml version="1.0" encoding="UTF-8" standalone="no"?>
<!DOCTYPE svg PUBLIC "-//W3C//DTD SVG 1.1//EN"
 "http://www.w3.org/Graphics/SVG/1.1/DTD/svg11.dtd">
<!-- Generated by graphviz version 2.43.0 (0)
 -->
<!-- Title: G Pages: 1 -->
<svg width="1540pt" height="144pt"
 viewBox="0.00 0.00 1540.00 144.00" xmlns="http://www.w3.org/2000/svg" xmlns:xlink="http://www.w3.org/1999/xlink">
<g id="graph0" class="graph" transform="scale(1 1) rotate(0) translate(4 140)">
<title>G</title>
<polygon fill="white" stroke="transparent" points="-4,4 -4,-140 1536,-140 1536,4 -4,4"/>
<!-- azurerm_linux_virtual_machine.dev01vm -->
<g id="node1" class="node">
<title>azurerm_linux_virtual_machine.dev01vm</title>
<polygon fill="none" stroke="black" points="1426.5,-90 1125.5,-90 1125.5,-54 1426.5,-54 1426.5,-90"/>
<text text-anchor="middle" x="1276" y="-68.3" font-family="sans-serif" font-size="14.00">azurerm_linux_virtual_machine.dev01vm</text>
</g>
<!-- azurerm_network_interface.dev01vm_nic -->
<g id="node2" class="node">
<title>azurerm_network_interface.dev01vm_nic</title>
<polygon fill="none" stroke="black" points="981.5,-90 679.5,-90 679.5,-54 981.5,-54 981.5,-90"/>
<text text-anchor="middle" x="830.5" y="-68.3" font-family="sans-serif" font-size="14.00">azurerm_network_interface.dev01vm_nic</text>
</g>
<!-- azurerm_linux_virtual_machine.dev01vm&#45;&gt;azurerm_network_interface.dev01vm_nic -->
<g id="edge1" class="edge">
<title>azurerm_linux_virtual_machine.dev01vm&#45;&gt;azurerm_network_interface.dev01vm_nic</title>
<path fill="none" stroke="black" d="M1125.47,-72C1082.43,-72 1035.31,-72 991.65,-72"/>
<polygon fill="black" stroke="black" points="991.51,-68.5 981.51,-72 991.51,-75.5 991.51,-68.5"/>
</g>
<!-- azurerm_public_ip.dev01vm_pub_ip -->
<g id="node5" class="node">
<title>azurerm_public_ip.dev01vm_pub_ip</title>
<polygon fill="none" stroke="black" points="618,-136 353,-136 353,-100 618,-100 618,-136"/>
<text text-anchor="middle" x="485.5" y="-114.3" font-family="sans-serif" font-size="14.00">azurerm_public_ip.dev01vm_pub_ip</text>
</g>
<!-- azurerm_network_interface.dev01vm_nic&#45;&gt;azurerm_public_ip.dev01vm_pub_ip -->
<g id="edge2" class="edge">
<title>azurerm_network_interface.dev01vm_nic&#45;&gt;azurerm_public_ip.dev01vm_pub_ip</title>
<path fill="none" stroke="black" d="M694.92,-90.05C673.03,-92.98 650.3,-96.03 628.24,-98.99"/>
<polygon fill="black" stroke="black" points="627.61,-95.54 618.16,-100.34 628.54,-102.48 627.61,-95.54"/>
</g>
<!-- azurerm_virtual_network.example_az_vnet -->
<g id="node7" class="node">
<title>azurerm_virtual_network.example_az_vnet</title>
<polygon fill="none" stroke="black" points="641,-82 330,-82 330,-46 641,-46 641,-82"/>
<text text-anchor="middle" x="485.5" y="-60.3" font-family="sans-serif" font-size="14.00">azurerm_virtual_network.example_az_vnet</text>
</g>
<!-- azurerm_network_interface.dev01vm_nic&#45;&gt;azurerm_virtual_network.example_az_vnet -->
<g id="edge3" class="edge">
<title>azurerm_network_interface.dev01vm_nic&#45;&gt;azurerm_virtual_network.example_az_vnet</title>
<path fill="none" stroke="black" d="M679.06,-68.49C669.8,-68.28 660.47,-68.06 651.16,-67.84"/>
<polygon fill="black" stroke="black" points="651.15,-64.34 641.07,-67.61 650.99,-71.34 651.15,-64.34"/>
</g>
<!-- azurerm_network_interface_security_group_association.nsg_association -->
<g id="node3" class="node">
<title>azurerm_network_interface_security_group_association.nsg_association</title>
<polygon fill="none" stroke="black" points="1532,-36 1020,-36 1020,0 1532,0 1532,-36"/>
<text text-anchor="middle" x="1276" y="-14.3" font-family="sans-serif" font-size="14.00">azurerm_network_interface_security_group_association.nsg_association</text>
</g>
<!-- azurerm_network_interface_security_group_association.nsg_association&#45;&gt;azurerm_network_interface.dev01vm_nic -->
<g id="edge4" class="edge">
<title>azurerm_network_interface_security_group_association.nsg_association&#45;&gt;azurerm_network_interface.dev01vm_nic</title>
<path fill="none" stroke="black" d="M1096.91,-36.01C1071.09,-38.87 1044.85,-41.91 1020,-45 1001.42,-47.31 981.84,-49.92 962.61,-52.59"/>
<polygon fill="black" stroke="black" points="962.01,-49.14 952.59,-53.98 962.97,-56.07 962.01,-49.14"/>
</g>
<!-- azurerm_network_security_group.nsg_ssh -->
<g id="node4" class="node">
<title>azurerm_network_security_group.nsg_ssh</title>
<polygon fill="none" stroke="black" points="984,-36 677,-36 677,0 984,0 984,-36"/>
<text text-anchor="middle" x="830.5" y="-14.3" font-family="sans-serif" font-size="14.00">azurerm_network_security_group.nsg_ssh</text>
</g>
<!-- azurerm_network_interface_security_group_association.nsg_association&#45;&gt;azurerm_network_security_group.nsg_ssh -->
<g id="edge5" class="edge">
<title>azurerm_network_interface_security_group_association.nsg_association&#45;&gt;azurerm_network_security_group.nsg_ssh</title>
<path fill="none" stroke="black" d="M1019.91,-18C1011.27,-18 1002.7,-18 994.26,-18"/>
<polygon fill="black" stroke="black" points="994.03,-14.5 984.03,-18 994.03,-21.5 994.03,-14.5"/>
</g>
<!-- azurerm_resource_group.example_az_rg -->
<g id="node6" class="node">
<title>azurerm_resource_group.example_az_rg</title>
<polygon fill="none" stroke="black" points="294,-82 0,-82 0,-46 294,-46 294,-82"/>
<text text-anchor="middle" x="147" y="-60.3" font-family="sans-serif" font-size="14.00">azurerm_resource_group.example_az_rg</text>
</g>
<!-- azurerm_network_security_group.nsg_ssh&#45;&gt;azurerm_resource_group.example_az_rg -->
<g id="edge6" class="edge">
<title>azurerm_network_security_group.nsg_ssh&#45;&gt;azurerm_resource_group.example_az_rg</title>
<path fill="none" stroke="black" d="M676.74,-19.49C577.71,-21.52 446,-26.22 330,-37 309.27,-38.93 287.3,-41.62 266.06,-44.57"/>
<polygon fill="black" stroke="black" points="265.44,-41.12 256.03,-45.99 266.42,-48.05 265.44,-41.12"/>
</g>
<!-- azurerm_public_ip.dev01vm_pub_ip&#45;&gt;azurerm_resource_group.example_az_rg -->
<g id="edge7" class="edge">
<title>azurerm_public_ip.dev01vm_pub_ip&#45;&gt;azurerm_resource_group.example_az_rg</title>
<path fill="none" stroke="black" d="M371.98,-99.94C339.43,-94.72 303.74,-88.99 270.61,-83.68"/>
<polygon fill="black" stroke="black" points="270.84,-80.17 260.41,-82.04 269.73,-87.08 270.84,-80.17"/>
</g>
<!-- azurerm_virtual_network.example_az_vnet&#45;&gt;azurerm_resource_group.example_az_rg -->
<g id="edge8" class="edge">
<title>azurerm_virtual_network.example_az_vnet&#45;&gt;azurerm_resource_group.example_az_rg</title>
<path fill="none" stroke="black" d="M329.55,-64C321.15,-64 312.7,-64 304.3,-64"/>
<polygon fill="black" stroke="black" points="304.07,-60.5 294.07,-64 304.07,-67.5 304.07,-60.5"/>
</g>
</g>
</svg>
